# xmcd CD database file
#
# Track frame offsets:
#	150
#	29729
#	55660
#	83373
#	105110
#	134787
#	175262
#	190007
#	206496
#	231865
#
# Disc length: 3503 seconds
#
# Revision: 3
# Processed by: cddbd v1.5.2PL0 Copyright (c) Steve Scherf et al.
# Submitted via: CDex 1.70beta2
#
DISCID=7c0dad0a
DTITLE=Carl Verheyen Band - Trading 8s
DYEAR=2009
DGENRE=Bluesrock
TTITLE0=Highway 27
TTITLE1=Taximan
TTITLE2=On Our Way
TTITLE3=Constant As The Wind
TTITLE4=Higher Ground
TTITLE5=New Years Day
TTITLE6=Henrys Farm
TTITLE7=Henrys Farm Part 2
TTITLE8=Country Girl
TTITLE9=Eastern Steppes
EXTD=Bass: Dave Marotta \nDrums: Walfredo Reyes, Jr YEAR: 2009
EXTT0=
EXTT1=
EXTT2=
EXTT3=
EXTT4=
EXTT5=
EXTT6=
EXTT7=
EXTT8=
EXTT9=
PLAYORDER=
